<svg width="286" height="312" xmlns="http://www.w3.org/2000/svg" xmlns:xlink="http://www.w3.org/1999/xlink" overflow="hidden"><defs><clipPath id="clip0"><rect x="840" y="30" width="286" height="312"/></clipPath><clipPath id="clip1"><rect x="840" y="31" width="286" height="311"/></clipPath><clipPath id="clip2"><rect x="840" y="31" width="286" height="311"/></clipPath><clipPath id="clip3"><rect x="840" y="31" width="286" height="311"/></clipPath></defs><g clip-path="url(#clip0)" transform="translate(-840 -30)"><g clip-path="url(#clip1)"><g clip-path="url(#clip2)"><g clip-path="url(#clip3)"><path d="M132.175 305.947C111.617 304.328 91.855 298.252 74.1655 288.144 56.5043 278.064 40.7456 263.753 29.0756 247.171-5.56525 198.021-4.65664 132.033 31.3187 83.6775 39.695 72.4051 50.1157 62.1264 61.5585 53.8637 74.2507 44.664 89.5835 37.2531 105.058 32.7952L106.62 32.3693 105.768 33.1644C105.144 33.7606 103.695 34.3569 100.231 35.4643 73.5408 44.0393 49.7749 61.0474 32.5397 83.9047 24.1066 95.0636 16.7525 108.892 12.2947 121.953-1.27774 161.79 3.83321 205.659 26.2362 240.924 56.5327 288.712 112.214 313.045 168.093 302.965 202.535 296.776 233.939 276.9 254.894 248.023 275.736 219.288 284.594 183.937 279.824 148.246 276.616 124.139 266.678 100.686 251.459 81.3492 232.718 57.4981 206.482 40.4333 176.981 32.9088 162.982 29.3311 147.593 27.9682 133.14 29.0188 129.307 29.2744 128.256 29.2744 127.518 28.962 127.035 28.7633 126.666 28.5645 126.723 28.5077 126.751 28.4509 129.421 28.2238 132.601 27.9682 157.644 26.0942 182.006 30.8076 204.353 41.853 218.493 48.8663 229.993 57.0722 241.066 68.1459 248.222 75.2729 253.815 82.0591 259.153 90.1514 284.85 128.909 289.393 178.656 271.136 221.559 264.009 238.227 254.326 252.538 241.237 265.656 229.879 276.985 218.181 285.304 203.728 292.346 181.353 303.221 156.821 307.906 132.175 305.947Z" fill="#000000" fill-rule="nonzero" fill-opacity="1" transform="matrix(1 0 0 -1.00302 840.036 342)"/><path d="M204.637 284.907C204.239 284.509 204.466 284.225 205.943 283.288 206.766 282.749 207.874 281.783 208.356 281.159 209.265 280.023 210.031 278.348 209.776 278.092 209.691 278.035 208.896 278.234 207.959 278.575 202.649 280.421 198.191 279.143 189.105 273.18 186.691 271.59 184.022 269.971 183.227 269.546 181.609 268.779 178.883 268.495 178.684 269.091 178.486 269.602 180.218 271.334 181.211 271.618 182.773 272.073 182.404 272.726 180.502 272.811 179.224 272.868 178.514 272.726 177.293 272.186 175.958 271.562 175.646 271.278 175.078 270 174.567 268.949 174.425 268.268 174.539 267.53L174.709 266.536 173.488 267.217C171.785 268.154 170.649 269.347 169.655 271.249 168.349 273.72 168.008 273.436 168.15 270.113 168.292 267.473 168.462 266.82 169.74 264.293 169.797 264.151 169.513 264.066 169.116 264.066 168.661 264.066 167.781 264.605 166.645 265.57 163.777 268.012 163.096 268.41 161.477 268.523 160.342 268.609 159.774 268.495 159.064 268.041 157.786 267.246 157.957 266.593 159.603 266.167 161.222 265.769 162.216 265.059 162.869 263.895 163.607 262.532 163.266 262.078 161.506 262.078 160.682 262.078 159.291 262.277 158.439 262.504 156.509 263.015 156.452 263.015 156.452 262.532 156.452 262.05 158.752 259.892 160.427 258.784L161.676 257.961 159.632 257.79C158.524 257.705 157.502 257.535 157.389 257.421 157.162 257.194 157.701 256.683 159.007 255.803 159.632 255.377 159.575 255.349 156.849 254.866 153.186 254.213 153.044 254.156 153.044 253.702 153.044 253.191 154.209 252.85 158.297 252.14 160.171 251.799 162.414 251.345 163.266 251.089 164.686 250.692 164.771 250.635 164.09 250.436 163.692 250.323 161.847 250.124 159.973 250.039 154.805 249.726 153.272 249.386 151.398 248.165 150.517 247.597 149.467 246.773 149.098 246.376 148.501 245.723 148.473 245.609 148.87 245.439 149.126 245.354 150.659 245.524 152.249 245.836 161.194 247.625 163.437 247.199 155.941 245.155 152.363 244.19 151.057 243.593 149.637 242.316 148.246 241.066 146.968 238.965 147.195 238.34 147.337 238 147.65 238.085 149.154 238.908 151.17 240.044 151.994 240.243 151.284 239.448 151.028 239.164 150.574 238.397 150.233 237.716 149.694 236.637 149.666 236.495 150.091 236.324 150.347 236.239 151 236.381 151.54 236.637 153.073 237.375 152.902 237.034 151.057 235.7 149.949 234.905 149.183 234.053 148.785 233.286 148.217 232.065 148.019 230.56 148.445 230.56 148.587 230.56 149.438 231.214 150.319 231.98 152.022 233.485 153.3 234.252 154.01 234.252 154.322 234.252 154.095 233.684 153.186 232.292 152.477 231.185 151.312 229.198 150.603 227.806 149.864 226.443 149.154 225.222 148.956 225.08 148.785 224.967 147.65 224.569 146.457 224.172 144.498 223.547 143.561 223.462 138.081 223.292 134.333 223.178 130.159 223.235 127.49 223.434 125.076 223.604 120.079 223.945 116.416 224.172 112.753 224.399 107.358 224.796 104.434 225.052 101.509 225.308 98.5561 225.421 97.8746 225.336 95.5463 224.967 92.5649 223.348 84.3306 217.925 78.3394 213.978 77.0333 213.24 75.8691 213.24 75.1025 213.24 74.9321 213.439 73.8816 215.654 72.6322 218.266 71.61 219.487 70.7298 219.487 69.878 219.487 69.7928 219.061 70.4459 218.209 70.9854 217.528 71.0137 217.329 70.7298 216.363 70.5594 215.739 70.2755 215.171 70.1335 215.086 69.8496 214.915 68.9978 216.449 68.4299 218.152 68.2595 218.748 67.6632 219.685 67.1237 220.225 66.0448 221.276 64.8806 221.559 65.1362 220.708 65.3349 219.998 65.8744 216.619 65.8744 215.966 65.8744 215.483 65.7324 215.455 64.5399 215.625 63.8016 215.71 61.3313 216.449 59.0598 217.244 56.1068 218.266 54.3464 218.72 52.7847 218.834 50.6835 219.004 50.6268 218.976 49.6046 218.067 49.0367 217.556 48.554 217.045 48.554 216.931 48.554 216.818 49.4058 216.619 50.4848 216.534 52.4724 216.307 55.2266 215.512 55.2266 215.142 55.2266 215.029 54.1476 214.546 52.8415 214.092 49.4342 212.928 48.3268 211.764 46.7935 207.646 46.3676 206.482 45.743 205.574 44.6356 204.495 42.9319 202.819 42.9603 202.507 44.806 202.251 46.1121 202.081 46.0553 202.621 45.2603 197.254 44.806 194.017 44.4936 193.052 43.2443 190.951 42.0233 188.935 39.7802 187.969 35.3507 187.572 31.2903 187.203 30.9496 186.805 33.7322 185.754 34.6976 185.385 35.4927 184.959 35.4927 184.789 35.4927 184.477 31.8582 184.647 30.2965 185.016 29.2744 185.272 29.2744 184.619 30.2965 183.398 31.12 182.432 32.4545 181.751 34.073 181.467L35.0668 181.297 33.7322 179.848C32.1422 178.145 30.4953 177.208 27.4003 176.186 24.6745 175.305 22.9993 174.283 22.9993 173.488 22.9993 173.006 23.198 172.92 24.3906 172.92 25.9806 172.92 27.5423 172.438 27.5423 171.955 27.5423 171.785 27.0312 170.99 26.3782 170.223 24.3054 167.724 24.2202 167.383 23.9079 161.279 23.7375 158.241 23.5103 155.401 23.4252 154.975 23.2264 154.237 23.2832 154.18 24.0498 154.18 24.5325 154.18 25.2708 154.521 25.8955 155.032L26.9176 155.884 27.9114 154.265C29.5583 151.54 31.0064 147.792 30.8928 146.429 30.8076 145.321 30.7225 145.208 29.6719 144.867 27.883 144.242 24.5325 144.611 22.1758 145.662 21.0968 146.116 19.9895 146.514 19.7339 146.514 19.0809 146.514 19.308 145.634 20.8981 142.283 21.5795 140.835 22.0622 139.529 21.9771 139.387 21.8067 139.103 20.0179 139.955 18.0871 141.289 17.3204 141.829 16.5822 142.169 16.4402 142.084 15.702 141.63 16.497 138.308 17.7747 136.661 18.1723 136.15 18.3426 135.724 18.1439 135.724 17.9735 135.724 16.6106 136.235 15.1625 136.86 13.686 137.484 12.2947 137.996 12.0675 137.996 11.3861 137.996 11.4996 135.951 12.2379 135.043 13.544 133.396 17.576 132.232 23.2264 131.862 24.8165 131.749 26.1226 131.578 26.1226 131.493 26.1226 131.153 23.482 130.329 21.8635 130.13 21.0117 130.045 20.0747 129.846 19.7623 129.704 19.2796 129.449 19.2796 129.392 19.7055 128.966 20.4154 128.256 27.5707 128.285 28.9052 128.995 30.0978 129.648 30.0978 129.137 28.8768 127.916 27.9682 127.007 26.1226 126.297 23.7943 125.928 21.4092 125.559 23.0844 124.366 26.293 124.139 27.9966 124.026 28.7349 124.139 30.7792 124.792 33.6187 125.701 34.8396 126.496 36.8556 128.824 38.2469 130.443 38.4173 130.528 40.2061 130.869 41.8246 131.153 42.2505 131.153 43.3295 130.727 44.0109 130.471 44.5788 130.159 44.5788 130.074 44.5788 129.506 41.6542 127.745 39.9222 127.263L37.963 126.751 36.5433 124.196C33.7606 119.199 32.6533 115.962 32.6533 112.668 32.6533 111.731 32.7384 111.589 33.3347 111.589 34.0446 111.589 38.2753 112.895 47.5602 115.99 50.5416 116.984 53.4662 117.921 54.0908 118.091 54.7155 118.262 56.05 119.028 57.0722 119.766 58.8611 121.073 59.003 121.3 60.0252 123.827 62.4955 129.846 66.783 137.655 68.941 140.097 70.3039 141.602 76.1815 146.741 78.9925 148.87 80.7529 150.205 83.1664 152.136 84.3306 153.186 85.4948 154.237 86.9713 155.43 87.5959 155.827 88.2206 156.253 89.4699 157.133 90.3786 157.843 91.2588 158.524 92.0822 159.007 92.1958 158.922 92.281 158.808 92.1958 155.43 91.997 151.398 91.5427 142.908 91.5427 142.737 91.997 142.595 92.6501 142.368 98.982 136.945 102.531 133.594 104.462 131.749 107.472 129.051 109.204 127.575 113.974 123.515 116.7 119.965 117.097 117.268 117.609 113.775 119.227 110.794 120.42 111.106 120.76 111.191 121.158 110.908 121.669 110.198 122.066 109.601 122.776 108.778 123.231 108.324 124.026 107.557 124.111 107.529 124.452 108.011 124.792 108.466 124.877 108.409 125.616 107.33 126.184 106.478 126.553 106.194 126.979 106.251 127.405 106.308 127.83 105.995 128.483 105.058 128.966 104.348 129.676 103.61 130.074 103.44 131.72 102.588 140.295 103.241 142.709 104.377 145.122 105.513 145.122 105.456 142.823 109.374 139.87 114.372 138.109 117.069 137.201 117.921 136.661 118.432 135.809 118.801 134.361 119.113 133.225 119.341 132.232 119.539 132.175 119.539 132.118 119.539 131.806 120.079 131.493 120.76 130.783 122.18 128.995 124.082 122.322 130.386 117.722 134.759 113.633 139.273 113.974 139.614 114.116 139.784 116.672 138.705 123.486 135.667 136.377 129.875 143.419 124.963 145.037 120.59 145.378 119.681 145.662 118.829 145.662 118.688 145.662 118.517 145.917 118.404 146.23 118.404 146.599 118.404 146.855 118.659 146.968 119.113 147.252 120.221 147.735 119.823 148.331 118.034 148.7 116.842 148.984 116.416 149.382 116.416 149.722 116.416 149.921 116.672 149.978 117.211 150.091 117.892 150.177 117.836 150.858 116.331 151.682 114.542 152.164 114.372 152.59 115.735 153.215 117.836 153.101 117.807 154.748 116.132 155.572 115.28 156.622 113.946 157.105 113.179L157.957 111.788 160.768 111.958 163.55 112.1 162.982 111.163C162.216 109.914 162.273 109.601 163.295 109.601L164.175 109.601 163.692 108.863C163.437 108.466 163.323 108.011 163.465 107.898 163.579 107.784 164.544 107.557 165.595 107.387 166.645 107.216 168.235 106.705 169.144 106.251 170.706 105.484 170.819 105.342 171.444 103.61 172.722 99.9474 173.573 98.1869 174.283 97.7326 174.908 97.3351 175.987 97.2215 181.013 97.1648 187.969 97.0512 188.054 97.0796 187.401 99.1807 187.203 99.8338 186.691 101.083 186.266 101.935 185.84 102.787 185.329 104.008 185.13 104.632 184.221 107.529 181.694 111.021 180.558 111.021 180.274 111.021 179.366 111.163 178.542 111.333 177.321 111.589 176.782 111.901 175.76 112.98 174.084 114.684 173.346 116.189 173.801 116.927 174.084 117.353 174.056 117.609 173.687 118.148 173.289 118.688 173.204 119.539 173.204 122.436L173.204 126.042 174.709 127.177C177.179 129.023 183.852 132.828 188.679 135.099 193.904 137.541 194.841 138.194 197.084 141.034 199.611 144.214 199.866 145.236 201.655 159.291 201.826 160.768 201.996 162.414 201.996 162.926 202.024 163.919 202.251 164.005 203.302 163.408 203.7 163.181 204.381 163.011 204.807 162.982 205.943 162.982 211.905 161.449 215.625 160.228 218.55 159.263 229.879 153.783 231.668 152.448 232.065 152.164 234.11 151.227 236.211 150.347 242.429 147.82 245.041 145.946 247.313 142.368 248.222 140.92 248.477 138.819 247.881 137.683 247.427 136.86 248.278 136.661 249.84 137.229 250.55 137.484 251.146 137.655 251.203 137.626 251.231 137.57 251.089 137.172 250.834 136.718 250.607 136.263 250.493 135.724 250.55 135.525 250.805 134.929 252.026 135.099 252.963 135.894L253.844 136.633 253.844 135.326C253.844 134.475 253.957 134.02 254.213 134.02 254.979 134.02 256.399 135.185 256.967 136.292 257.648 137.598 258.273 137.655 258.216 136.405 258.188 135.752 258.529 135.27 259.948 133.935L261.709 132.317 263.81 132.601C266.479 132.97 269.233 133.651 270.88 134.361 272.754 135.156 275.139 136.633 275.139 137.03 275.139 137.456 267.643 144.725 266.11 145.776 264.917 146.571 264.917 146.599 262.589 146.287L260.261 146.003 258.216 147.905C257.109 148.956 253.929 151.369 251.118 153.272 248.335 155.174 245.751 156.906 245.411 157.162L244.758 157.616 245.978 159.121C247.881 161.421 249.017 163.607 249.329 165.509 249.812 168.661 250.465 169.655 252.765 170.819 254.639 171.785 255.065 172.523 254.923 174.596 254.809 176.356 254.61 176.81 251.373 182.773 249.102 186.975 247.71 188.878 243.906 192.938 236.949 200.349 237.744 199.696 234.45 200.69 232.86 201.201 231.384 201.598 231.214 201.598 230.788 201.598 228.204 199.526 225.705 197.169 224.456 196.005 222.355 194.443 220.736 193.506 219.203 192.597 217.442 191.547 216.818 191.149 215.483 190.326 215.568 190.241 214.234 194.273 213.354 196.942 213.24 197.68 213.24 200.235 213.24 201.826 213.382 204.267 213.552 205.687 213.694 207.107 214.007 209.748 214.234 211.536 214.575 214.489 214.915 218.805 215.398 226.614L215.568 229.368 217.584 228.8C220.367 228.033 221.559 227.465 225.109 225.364 226.784 224.342 229.112 222.979 230.333 222.326 232.236 221.276 232.548 220.963 232.974 219.884 233.769 217.783 234.45 217.556 240.385 217.329 247.455 217.045 247.285 217.016 248.704 219.742 249.812 221.9 249.868 222.099 249.868 224.569 249.868 227.92 249.528 228.601 245.041 233.968 238.568 241.776 235.643 245.467 233.428 248.733 229.822 254.014 229.993 253.446 230.333 259.21 230.674 265.116 230.475 266.507 228.686 269.631 226.415 273.606 223.15 276.786 218.777 279.313 217.528 280.023 215.682 281.244 214.66 281.982 212.729 283.459 211.991 283.487 212.644 282.039 212.956 281.386 212.786 281.443 211.622 282.55 210.173 283.885 208.583 284.594 206.113 284.935 205.403 285.02 204.75 284.992 204.637 284.907ZM209.236 283.09C210.599 282.408 212.189 280.591 213.041 278.774 213.921 276.843 214.546 277.042 214.433 279.228L214.376 280.903 215.142 280.364C215.597 280.08 216.591 279.484 217.357 279.001 222.071 276.218 224.796 273.805 226.983 270.511 229.169 267.132 229.425 266.252 229.425 261.34L229.425 257.223 228.374 257.961C227.522 258.529 226.954 258.671 225.648 258.671 223.32 258.671 218.55 257.052 215.228 255.121 213.751 254.27 212.36 253.56 212.161 253.56 211.622 253.56 212.019 254.724 212.729 255.263 213.382 255.803 213.155 256.115 212.133 256.115 211.252 256.115 208.129 254.639 205.858 253.162 204.353 252.197 204.296 252.197 204.211 252.793 203.927 254.383 205.403 256.967 206.567 256.967 207.59 256.967 207.646 257.421 206.709 258.188 205.46 259.267 204.069 259.608 201.712 259.466 198.56 259.267 197.623 258.387 196.431 254.553 195.92 252.821 195.806 252.651 195.607 253.276 195.494 253.673 195.408 254.468 195.38 255.036 195.352 255.604 195.21 256.172 195.068 256.257 194.528 256.598 192.37 254.525 191.575 252.963 191.007 251.799 190.809 251.004 190.809 249.726 190.809 247.824 190.44 246.83 190.156 247.938 190.042 248.278 189.957 249.187 189.957 249.954 189.957 252.254 189.644 251.97 186.862 247.029 184.306 242.543 183.824 241.237 183.426 237.773 183.256 236.211 182.972 234.28 182.773 233.428L182.432 231.895 181.609 233.059C181.155 233.712 180.615 234.252 180.416 234.252 179.905 234.252 179.792 233.599 179.621 229.851 179.565 228.147 179.309 226.159 179.11 225.449L178.713 224.172 178.372 226.273C178.003 228.402 177.634 229.425 177.208 229.425 176.356 229.425 174.908 220.906 174.88 215.71 174.851 213.638 174.766 211.082 174.652 209.975L174.482 207.987 174.113 208.981C173.346 210.968 172.239 213.24 172.04 213.24 171.927 213.24 171.415 212.417 170.933 211.423 170.422 210.401 169.797 209.378 169.513 209.123 169.059 208.697 168.974 208.782 168.491 210.145 167.951 211.622 167.355 212.218 167.128 211.48 167.043 211.281 166.702 210.06 166.361 208.782 166.049 207.476 165.623 206.425 165.481 206.425 165.311 206.425 165.282 207.646 165.424 209.691 165.595 212.559 165.566 212.956 165.169 212.956 164.26 212.956 161.989 208.896 161.222 205.943L160.881 204.58 160.54 207.646C160.37 209.322 160.143 210.798 160.029 210.912 159.887 211.025 159.603 210.827 159.32 210.457 157.843 208.356 155.77 206.425 155.401 206.795 155.316 206.88 155.543 207.902 155.884 209.066 156.423 210.827 156.48 211.48 156.281 212.984 156.054 214.603 155.941 214.802 155.344 214.887 154.862 214.972 154.351 214.631 153.328 213.524 152.051 212.133 151.965 212.104 151.795 212.729 151.312 214.546 151.823 218.436 152.647 219.032 153.13 219.402 153.13 219.43 152.59 219.714 151.994 220.026 150.489 219.544 149.58 218.72 148.927 218.152 148.927 218.294 149.467 221.332 150.148 225.024 151.256 227.522 154.493 232.463 155.259 233.627 155.884 234.791 155.884 234.99 155.884 235.558 153.811 235.501 152.675 234.933 152.164 234.678 151.341 234.138 150.83 233.769 150.319 233.371 149.807 233.116 149.722 233.201 149.666 233.286 150.517 234.053 151.682 234.905 152.817 235.757 154.067 236.779 154.407 237.176 155.06 237.858 155.06 237.915 154.549 238.198 154.18 238.369 153.612 238.369 152.874 238.227 151.142 237.801 151.142 237.858 152.76 239.505 153.726 240.47 154.209 241.151 154.038 241.322 153.783 241.549 151.142 240.981 149.495 240.356 148.445 239.93 150.83 242.174 152.107 242.798 152.76 243.111 154.691 243.764 156.367 244.246 159.49 245.098 161.733 246.12 162.585 247.086 163.295 247.852 162.897 248.023 160.626 247.966 158.695 247.938 152.959 247.199 151.795 246.83 150.943 246.575 151.54 247.256 152.704 247.852 154.095 248.534 154.947 248.676 159.973 249.017 166.276 249.443 167.611 249.982 165.481 251.288 164.487 251.884 160.711 252.85 158.07 253.162 157.162 253.247 156.509 253.446 156.65 253.56 157.048 253.9 160.54 254.667 162.67 254.866 164.913 255.093 165.453 255.689 163.635 255.973 163.039 256.058 162.045 256.229 161.421 256.371L160.285 256.569 161.989 256.939C164.743 257.535 165.084 258.103 163.096 258.784 161.619 259.295 159.291 260.573 159.291 260.885 159.291 260.999 160.171 261.084 161.222 261.113 164.998 261.169 165.367 261.595 163.834 264.264 163.21 265.372 162.585 265.996 161.477 266.621L160.001 267.473 161.052 267.473C162.556 267.473 163.266 267.132 165.14 265.485 167.667 263.27 168.974 262.561 170.194 262.816 170.762 262.901 171.217 263.157 171.217 263.356 171.217 263.554 170.819 264.463 170.336 265.428 169.854 266.365 169.371 267.7 169.314 268.41L169.172 269.688 170.848 268.069C173.403 265.57 176.413 264.662 175.902 266.564 175.277 268.864 175.873 270.312 177.833 271.363 178.798 271.846 179.167 271.647 178.514 270.965 177.634 269.971 177.435 268.978 178.031 268.268 178.457 267.728 178.798 267.615 180.047 267.672 182.063 267.757 184.562 268.978 190.411 272.811 195.238 275.934 198.021 277.354 200.548 278.007 202.649 278.518 206.198 278.206 208.498 277.269 209.577 276.843 210.514 276.587 210.628 276.701 210.997 277.042 210.798 278.972 210.287 280.023 210.003 280.619 209.265 281.67 208.64 282.38 207.419 283.771 207.561 283.97 209.236 283.09ZM204.949 258.131C205.261 257.961 205.119 257.592 204.381 256.569 203.558 255.405 203.444 254.951 203.359 253.105 203.274 251.913 203.359 250.834 203.529 250.663 203.7 250.493 204.296 250.777 205.261 251.515 206.795 252.651 210.287 254.695 210.713 254.695 210.855 254.695 210.968 254.184 210.968 253.588 210.968 252.963 211.082 252.396 211.224 252.31 211.593 252.083 213.268 252.821 216.079 254.44 218.692 255.916 222.951 257.478 225.166 257.734 226.273 257.847 226.727 257.762 227.551 257.279 228.119 256.91 228.686 256.711 228.857 256.825 229.027 256.939 229.141 256.427 229.141 255.405 229.141 253.475 229.567 252.566 232.605 248.165 235.217 244.388 237.971 240.754 240.243 238.198 243.395 234.621 247.654 229.254 248.222 228.175 248.562 227.522 248.846 226.245 248.931 224.967 249.102 222.922 249.045 222.752 248.023 220.622 246.944 218.379 246.944 218.379 245.638 218.209 243.849 217.982 235.615 218.493 234.876 218.89 234.564 219.061 234.11 219.742 233.911 220.395 233.542 221.474 233.258 221.758 231.299 222.894 230.078 223.604 227.636 225.052 225.819 226.103 221.73 228.516 221.048 228.828 216.449 230.276 213.865 231.1 212.473 231.668 211.962 232.179 210.713 233.457 210.287 235.558 210.259 240.555 210.259 243.906 210.173 245.041 209.918 245.041 209.719 245.041 209.492 244.729 209.378 244.332 209.094 243.167 209.464 235.075 209.861 233.911 210.372 232.378 211.622 231.015 213.098 230.305L214.376 229.709 214.376 227.068C214.376 223.689 213.95 218.408 213.098 210.543 212.701 207.107 212.388 204.069 212.388 203.813 212.388 203.444 212.047 203.558 210.77 204.438 208.385 206.085 199.582 209.322 199.185 208.697 198.986 208.385 199.582 207.959 200.889 207.561 204.04 206.539 208.612 204.637 209.889 203.842 211.792 202.621 212.218 201.911 212.019 200.321 211.877 199.355 212.047 198.276 212.786 195.721 213.893 191.944 214.887 189.105 215.171 189.105 215.256 189.105 217.3 190.298 219.714 191.746 222.809 193.591 224.825 195.039 226.557 196.629 227.891 197.879 229.51 199.298 230.135 199.781L231.299 200.69 234.11 199.753 236.921 198.844 240.413 195.181C245.354 189.985 247.938 186.89 249.159 184.647 249.755 183.597 250.976 181.382 251.884 179.735 254.553 174.88 254.667 173.034 252.339 171.785 251.629 171.387 250.72 170.762 250.323 170.393 249.443 169.57 248.562 167.525 248.307 165.68 248.08 164.005 246.688 161.364 245.041 159.518 243.877 158.184 239.902 155.316 239.249 155.316 238.454 155.316 235.245 168.037 235.785 168.917 235.87 169.059 237.034 169.485 238.34 169.911 240.782 170.677 241.634 171.33 241.634 172.438 241.634 172.807 241.123 173.176 239.93 173.687 238.397 174.368 237.744 174.908 238.511 174.908 238.937 174.908 238.852 175.504 238.34 176.1 237.801 176.668 238 176.81 239.647 176.952 240.328 177.009 240.669 177.208 240.726 177.549 240.782 177.833 240.64 178.031 240.385 178.031 240.129 178.031 239.533 178.4 239.022 178.855L238.085 179.678 239.306 179.99C239.959 180.189 240.839 180.615 241.265 180.984L242.06 181.666 238.085 185.669C235.927 187.884 233.968 189.673 233.769 189.673 233.315 189.673 230.504 186.862 227.295 183.227 224.512 180.047 210.514 165.055 209.748 164.459 209.464 164.203 208.385 164.061 206.795 164.033 204.324 163.976 204.267 164.005 202.109 165.226 199.611 166.645 195.607 170.024 193.364 172.608 192.03 174.141 190.383 175.476 189.843 175.476 189.332 175.476 189.815 174.652 190.865 173.715L192.086 172.665 190.212 172.636C189.19 172.636 186.947 172.835 185.243 173.091 182.858 173.431 180.445 173.517 174.624 173.431 160.257 173.261 152.505 173.375 149.779 173.857 148.388 174.113 146.457 174.397 145.52 174.482 142.823 174.794 138.876 175.646 134.673 176.867 132.515 177.463 130.386 178.06 129.903 178.173 128.398 178.514 126.411 179.479 126.212 179.962 125.956 180.615 125.531 185.527 125.502 187.742L125.502 189.673 123.543 191.888C120.391 195.465 117.836 197.566 117.836 196.544 117.836 196.431 119.284 194.841 121.073 192.995L124.31 189.673 124.48 187.884C125.076 180.927 125.218 179.394 125.474 177.747 126.184 173.261 126.638 167.667 126.893 160.285 127.149 153.044 127.234 152.136 127.859 150.148 128.995 146.599 131.153 143.987 136.207 139.955 140.352 136.633 142.113 135.582 149.268 132.118 154.152 129.761 154.805 129.364 155.6 128.256 156.423 127.121 156.622 126.979 157.957 126.808 158.78 126.723 160.285 126.638 161.336 126.638L163.266 126.638 167.298 122.833C169.541 120.76 171.671 118.688 172.068 118.262L172.778 117.495 172.154 117.012C171.813 116.728 169.57 115.763 167.185 114.854 163.664 113.52 162.414 113.179 160.654 113.065 159.348 112.98 158.439 113.037 158.439 113.207 158.439 113.349 157.701 114.343 156.792 115.365 154.237 118.347 152.193 119.454 152.193 117.864 152.193 117.097 151.71 116.842 151.483 117.523 151.199 118.46 150.205 119.539 149.637 119.539 149.325 119.539 148.757 119.994 148.331 120.533 147.508 121.612 146.968 121.782 146.571 121.044 146.343 120.647 146.173 120.817 145.577 121.981 143.419 126.184 135.27 131.578 122.947 137.002 119.908 138.336 116.813 139.699 116.104 140.012L114.798 140.608 114.627 143.788C114.286 149.751 113.719 151.994 110.624 159.973 107.699 167.497 106.308 169.201 100.799 172.068 95.0636 175.021 88.7885 179.565 85.154 183.341 82.8541 185.726 78.7086 190.752 77.8851 192.172 77.4876 192.853 76.8345 194.557 76.4086 195.976 76.0111 197.396 75.5 198.617 75.3297 198.702 74.7902 198.873 74.847 198.333 75.9543 193.875 77.5444 187.401 77.6296 181.723 76.1815 178.656 75.3297 176.896 72.4902 176.072 62.6091 174.851 61.2178 174.681 59.9684 174.454 59.8549 174.368 59.7413 174.283 59.2018 171.927 58.6623 169.144 57.3562 162.67 55.9932 159.66 55.5389 162.329 54.7439 167.185 56.5043 173.289 59.7129 176.81 60.5363 177.719 61.7857 179.167 62.4671 180.019 63.1486 180.871 64.5115 182.432 65.5053 183.483 66.4991 184.505 67.2941 185.499 67.2941 185.669 67.2941 185.84 67.4361 185.982 67.5781 185.982 68.0324 185.982 67.6065 183.227 66.9818 181.836 66.2719 180.331 66.3003 180.218 67.2089 180.445 69.9632 181.126 71.5248 184.193 72.5186 190.951 72.9445 193.676 73.5692 196.743 73.9667 198.134 74.1087 198.503 74.0519 198.759 73.8532 198.759 73.0865 198.759 72.5186 196.999 71.6384 191.717 70.9854 187.969 70.4459 185.641 69.9632 184.534 68.7422 181.836 68.5719 181.95 68.5719 185.329 68.5719 188.849 68.2595 189.247 67.0954 187.231 66.6411 186.493 65.4769 184.988 64.4547 183.852 57.1006 175.703 55.8229 173.744 54.8007 169.087 54.0624 165.651 54.0908 164.572 55.113 159.547 55.5673 157.19 55.9365 155.06 55.8797 154.833 55.8229 154.493 55.4822 154.663 54.5451 155.43 53.7501 156.111 53.2106 156.395 53.0119 156.196 52.6711 155.855 53.2106 152.675 54.1192 149.978 54.4884 148.842 54.8007 147.848 54.8007 147.763 54.8007 147.678 54.2896 148.019 53.6649 148.501 52.3588 149.552 50.9959 151.398 50.7119 152.562 50.6268 152.988 50.3428 153.328 50.1157 153.328 49.6614 153.328 49.4342 152.335 49.3206 149.921L49.2638 148.359 48.3268 149.978C47.1911 151.909 46.68 152.42 46.2257 151.965 46.0269 151.767 45.7714 149.098 45.5442 145.179 45.2035 138.563 44.9763 136.576 44.5788 136.576 44.4652 136.576 44.2665 137.059 44.1529 137.626 43.8689 139.245 43.1307 140.835 42.7048 140.835 42.2789 140.835 41.6258 139.671 40.5184 136.945 39.3827 134.134 36.9692 130.386 35.0952 128.483 33.0792 126.468 31.0064 125.531 28.1102 125.303L26.2646 125.19 27.4003 125.729C28.025 126.013 28.9336 126.609 29.4163 127.007 30.4101 127.83 31.3755 129.79 31.1484 130.443 30.978 130.897 30.3249 130.783 28.3374 129.932 27.7411 129.676 26.6053 129.477 25.7819 129.506L24.277 129.506 25.3844 129.932C26.7473 130.414 28.3941 131.635 28.3941 132.146 28.3941 132.629 26.8893 132.885 23.993 132.885 21.3808 132.885 17.3772 133.481 15.3328 134.162 14.0551 134.588 12.4934 135.923 12.4934 136.604 12.4934 136.746 12.9761 136.661 13.544 136.405 16.0427 135.298 18.2574 134.588 19.1377 134.588 20.6141 134.588 20.6141 135.241 19.1944 136.661 18.0587 137.797 17.1501 139.614 17.3772 140.267 17.434 140.409 18.0303 140.153 18.7117 139.699 20.1598 138.734 21.8919 138.109 22.5449 138.365 23.3116 138.677 23.056 140.153 21.8351 142.567 21.2104 143.845 20.7561 144.924 20.8129 144.98 20.8697 145.037 21.4944 144.839 22.2042 144.526 24.7597 143.419 29.3028 143.248 30.8928 144.271 32.3977 145.236 32.2841 147.451 30.5237 151.284 29.1892 154.123 27.1732 157.559 26.8325 157.559 26.6905 157.559 26.1794 157.048 25.7535 156.423 25.2992 155.77 24.9017 155.316 24.8449 155.344 24.7881 155.401 24.8733 158.042 24.9868 161.222 25.2708 167.696 25.2992 167.866 27.6843 170.053 28.3941 170.706 28.962 171.387 28.962 171.614 28.962 172.296 27.5139 173.488 26.293 173.801 25.6683 173.943 25.0152 174.113 24.8449 174.17 24.7029 174.198 25.8955 174.652 27.4855 175.163 30.978 176.299 33.136 177.634 35.1519 179.905 37.1395 182.177 37.1111 182.574 34.9248 182.574 33.8174 182.574 32.8804 182.745 32.2841 183.085L31.3755 183.568 34.073 183.71C35.5495 183.795 36.9408 183.966 37.1395 184.079 37.821 184.534 37.4803 185.13 36.1457 185.783L34.8396 186.464 36.8272 186.663C38.8148 186.862 41.8246 188.026 42.9887 189.048 43.7838 189.786 44.6924 191.348 45.3738 193.109 45.9417 194.699 46.8503 200.094 46.8503 202.024 46.8503 202.961 46.7935 203.018 45.8281 203.018L44.806 203.018 45.9417 204.296C46.6232 205.062 47.3898 206.425 47.8725 207.732 48.3836 209.094 49.1219 210.401 49.8317 211.167 50.8255 212.246 51.365 212.559 53.8069 213.382 55.3402 213.893 56.6747 214.461 56.7315 214.66 56.8735 215.057 56.0216 216.023 55.0562 216.505 54.6587 216.732 53.4662 217.073 52.4156 217.244 50.8255 217.556 50.5984 217.641 51.1379 217.84 52.16 218.237 54.0624 217.84 58.9462 216.193 66.3855 213.694 66.8682 213.751 66.6694 217.187 66.5275 219.685 66.8682 219.487 68.1175 216.221 69.1397 213.638 69.5089 213.354 70.673 214.319 70.9854 214.575 71.4397 215.313 71.6668 215.937L72.0359 217.073 73.1717 214.802 74.2791 212.53 75.784 212.445C77.6012 212.331 78.2543 212.672 85.7503 217.669 88.6465 219.6 92.3945 221.872 94.1266 222.78L97.2499 224.371 100.799 224.229C103.951 224.087 108.324 223.803 124.792 222.582 127.575 222.383 132.345 222.298 137.002 222.383 143.845 222.525 144.867 222.61 146.599 223.178 147.678 223.519 148.615 223.746 148.672 223.661 148.729 223.604 148.587 222.241 148.359 220.622 147.877 217.528 147.877 214.972 148.359 214.887 148.53 214.887 149.041 215.597 149.495 216.505 149.978 217.414 150.489 218.209 150.631 218.266 150.801 218.323 150.915 217.045 150.915 215 150.915 211.905 151.341 209.549 151.88 209.549 151.994 209.549 152.335 210.088 152.675 210.77 153.527 212.559 154.776 213.95 155.06 213.467 155.515 212.757 155.316 210.344 154.606 208.243 153.783 205.772 153.726 205.29 154.322 205.29 155.089 205.29 157.02 206.425 158.326 207.618L159.575 208.782 159.603 205.403C159.632 203.529 159.717 201.712 159.831 201.371 160.001 200.718 160.029 200.718 160.455 201.229 160.711 201.513 161.392 203.188 161.96 204.949 162.5 206.709 163.266 208.669 163.607 209.35L164.26 210.543 164.345 206.851C164.374 204.835 164.544 203.047 164.686 202.905 164.97 202.621 165.907 204.381 166.958 207.277L167.753 209.378 167.951 208.186C168.065 207.476 168.292 206.993 168.519 206.993 168.917 206.993 170.677 208.896 171.444 210.202 171.699 210.628 171.983 210.968 172.097 210.968 172.21 210.968 172.523 210.344 172.75 209.606 173.006 208.839 173.573 207.788 174.028 207.249 175.447 205.602 175.589 206.113 175.817 213.751 175.987 220.168 176.668 225.875 177.293 226.5 177.492 226.699 177.378 221.929 177.123 220.481 177.066 220.14 177.208 219.884 177.52 219.827 178.571 219.629 180.132 224.229 180.644 229.027 180.956 231.867 181.041 232.179 181.353 231.611 181.552 231.27 181.694 230.646 181.723 230.22 181.723 229.396 182.177 228.914 182.574 229.311 183.029 229.794 183.994 234.138 184.42 237.517 184.619 239.391 185.016 241.435 185.272 242.06 185.868 243.451 188.594 248.165 188.821 248.165 188.906 248.136 189.219 247.739 189.531 247.256 190.184 246.234 190.979 245.666 191.291 246.007 191.405 246.12 191.604 247.427 191.689 248.903 191.859 251.373 191.944 251.686 192.91 253.134 193.478 253.986 194.046 254.695 194.188 254.695 194.301 254.695 194.5 254.128 194.585 253.418 194.812 251.771 195.494 250.152 195.976 250.152 196.204 250.152 196.601 251.118 196.999 252.651 197.794 255.718 198.674 257.563 199.611 258.018 200.406 258.415 204.381 258.5 204.949 258.131ZM81.4912 185.982C83.8479 183.142 84.9837 181.495 85.8923 179.593 87.312 176.612 89.9242 169.456 90.1798 167.838L90.3502 166.73 88.7033 166.134C85.2392 164.856 84.6429 164.658 80.3554 163.55 77.9419 162.926 74.3643 161.79 72.4335 161.08 65.2497 158.383 63.2054 156.31 56.9019 145.406 55.5105 143.021 53.8353 140.267 53.1538 139.302 52.5008 138.365 51.5922 136.803 51.1379 135.866 49.633 132.828 49.6898 132.885 45.9985 132.714 44.2097 132.629 41.9949 132.373 41.0863 132.118 40.2061 131.862 39.3827 131.749 39.2975 131.834 39.1839 131.919 39.4395 132.544 39.8086 133.225 40.2061 133.907 40.9444 135.44 41.4554 136.661 41.9949 137.854 42.506 138.847 42.6196 138.847 42.9603 138.847 43.1875 137.91 43.3579 135.809 43.5566 133.396 43.8122 132.828 44.4084 133.452 45.4874 134.56 46.538 139.5 46.5664 143.561L46.5664 145.861 47.6454 146.713C48.696 147.564 48.7243 147.564 49.3774 147.053 49.7465 146.741 50.1441 146.514 50.286 146.514 50.428 146.514 50.5416 147.309 50.5416 148.274L50.5416 150.035 51.6206 149.012C53.9489 146.798 56.2204 145.605 56.2204 146.599 56.2204 146.798 55.7945 148.246 55.255 149.779 53.6649 154.521 53.6649 154.606 55.3118 153.612 56.4476 152.902 57.0722 152.874 57.0722 153.556 57.0722 153.811 56.8735 155.259 56.6179 156.764L56.1352 159.462 57.1574 161.023C58.2364 162.642 58.8611 164.743 59.8832 170.166 60.224 171.841 60.4795 173.289 60.4795 173.346 60.4795 173.403 61.0758 173.545 61.8424 173.63 62.5807 173.744 64.1424 173.999 65.3065 174.198 66.4707 174.425 68.5151 174.738 69.8496 174.908 73.0297 175.305 74.7902 175.902 76.0111 176.981 77.6864 178.457 77.8851 179.281 78.0271 184.931 78.0839 187.714 78.1691 189.957 78.2259 189.9 78.2543 189.843 79.7308 188.083 81.4912 185.982ZM240.3 181.41C240.129 181.24 239.221 181.041 238.255 180.956 237.29 180.871 236.438 180.672 236.353 180.558 236.296 180.416 236.694 179.792 237.29 179.139L238.34 177.974 237.233 178.06C235.927 178.173 235.7 177.804 236.438 176.725 236.921 175.958 236.921 175.93 236.438 176.129 235.643 176.441 235.501 175.561 236.239 174.766 236.58 174.425 237.687 173.715 238.681 173.204 239.675 172.722 240.498 172.182 240.498 172.04 240.498 171.671 238.852 170.99 236.58 170.422L234.763 169.996 234.876 167.753C234.99 166.077 234.933 165.538 234.649 165.538 234.025 165.538 229.964 168.434 226.386 171.444 223.093 174.198 222.042 175.277 222.042 175.845 222.042 175.987 223.348 177.463 224.967 179.11 226.557 180.786 228.743 183.199 229.822 184.505 230.873 185.783 232.207 187.231 232.775 187.685L233.826 188.537 237.233 185.13C239.703 182.66 240.527 181.637 240.3 181.41ZM91.2588 176.867C93.5587 175.107 96.6253 173.176 99.3511 171.728 102.077 170.251 104.235 168.888 105.058 168.093 106.45 166.759 108.579 162.954 109.488 160.2 109.971 158.666 109.971 158.666 109.175 156.31 108.466 154.18 108.409 153.669 108.522 150.603L108.608 147.224 109.914 144.81C113.207 138.762 113.832 137.768 115.735 135.61 116.842 134.333 119.511 131.635 121.697 129.619 127.632 124.054 129.307 122.294 130.471 120.42L131.522 118.716 133.708 118.233C135.582 117.836 136.008 117.609 136.973 116.586 137.996 115.479 143.39 106.734 143.39 106.137 143.39 105.995 142.709 105.569 141.886 105.2 140.721 104.661 139.529 104.434 136.405 104.178 130.954 103.724 130.556 103.837 128.824 106.336 127.121 108.835 126.95 108.977 126.666 108.494 126.269 107.869 125.814 108.38 125.332 110.056 124.764 112.015 123.798 112.072 123.798 110.141 123.798 109.857 123.685 109.601 123.515 109.601 123.145 109.601 121.839 111.589 121.413 112.782 121.016 113.946 120.618 114.144 120.249 113.321 120.107 113.009 119.852 112.753 119.681 112.81 119.369 112.924 118.318 116.075 117.864 118.404 117.353 120.845 114.002 124.991 109.743 128.37 108.664 129.25 105.882 131.749 103.61 133.907 101.339 136.065 97.903 139.131 96.0006 140.693L92.5365 143.532 92.6785 145.236C92.7921 146.173 92.934 149.949 93.0192 153.612L93.1896 160.285 92.1958 164.26C91.2588 167.951 88.9588 174.993 87.4824 178.542 87.17 179.366 87.028 179.962 87.1984 179.848 87.3688 179.763 89.186 178.4 91.2588 176.867ZM131.891 176.612C139.216 174.539 141.176 174.084 144.583 173.659 146.429 173.403 149.012 173.006 150.375 172.778 152.164 172.466 154.947 172.352 160.711 172.352 167.469 172.352 168.633 172.296 168.775 171.927 168.86 171.699 169.059 169.229 169.257 166.446 169.513 162.102 169.513 161.194 169.144 159.717 168.888 158.78 168.178 156.026 167.525 153.612 166.276 148.757 165.68 145.293 165.367 140.977 165.282 139.415 165.14 138.052 165.084 137.967 165.027 137.854 164.459 137.91 163.806 138.052 162.414 138.421 161.79 138.052 162.443 137.257 162.812 136.803 162.727 136.775 161.336 136.945 159.518 137.172 158.922 136.973 159.149 136.263 159.291 135.838 159.178 135.724 158.638 135.724 157.616 135.724 157.502 135.412 158.212 134.645L158.865 133.935 156.31 134.106 153.754 134.276 152.76 133.14 151.767 132.033 148.7 133.424C142.595 136.235 137.201 139.898 133.169 143.987 130.187 146.996 129.562 148.019 128.767 151.085 128.058 153.925 127.49 161.165 127.49 167.383 127.49 169.144 127.376 171.188 127.234 171.955 127.092 172.722 126.893 174.425 126.78 175.731 126.581 177.974 126.609 178.116 127.092 177.974 127.405 177.889 129.562 177.265 131.891 176.612ZM221.787 174.226C222.468 173.375 229.623 167.412 231.497 166.134 232.236 165.623 233.4 164.97 234.081 164.658 235.274 164.147 235.331 164.033 235.785 162.216 236.58 159.007 238.284 153.896 238.568 153.896 238.965 153.896 241.066 155.004 242.401 155.912 243.054 156.367 243.707 156.736 243.877 156.736 244.559 156.736 255.349 149.24 257.478 147.252 260.034 144.895 260.403 144.782 263.441 145.35 264.605 145.577 264.747 145.52 266.138 144.441 267.757 143.192 273.72 137.428 273.72 137.087 273.72 136.973 272.669 136.377 271.391 135.752 269.176 134.673 264.491 133.452 262.561 133.452 261.709 133.452 259.239 136.036 259.239 136.945 259.239 137.74 258.443 138.563 257.648 138.563 257.137 138.563 256.825 138.223 256.257 137.172 255.462 135.582 254.979 135.128 254.979 135.98 254.979 136.86 254.355 137.996 253.872 137.996 253.645 137.996 253.162 137.655 252.793 137.229L252.168 136.434 252.14 137.939C252.14 138.734 252.026 139.415 251.856 139.415 251.714 139.415 251.118 139.075 250.522 138.677L249.443 137.939 249.272 139.5C249.017 141.8 248.051 143.504 245.638 145.917 243.849 147.706 242.997 148.303 240.498 149.524 238.852 150.319 236.552 151.341 235.387 151.767 234.223 152.193 232.832 152.874 232.349 153.243 231.838 153.612 228.516 155.344 224.967 157.105 219.174 159.944 214.603 161.79 211.025 162.698L209.833 163.011 215.426 168.945C218.493 172.239 221.048 174.908 221.134 174.908 221.19 174.908 221.503 174.596 221.787 174.226ZM185.556 172.097C189.275 171.529 189.446 171.501 189.162 171.132 188.31 170.109 186.55 166.503 184.647 161.989 181.808 155.202 181.382 153.981 180.303 150.177 179.053 145.719 177.776 142.368 175.192 136.718 173.971 134.077 172.835 131.209 172.665 130.386 172.494 129.562 172.352 127.319 172.324 125.417 172.324 123.515 172.239 121.499 172.125 120.931L171.927 119.88 168.292 123.373C165.055 126.468 164.686 126.922 164.942 127.433 165.509 128.512 166.077 132.771 166.248 137.57 166.361 140.239 166.56 143.419 166.702 144.668 167.043 147.394 168.718 154.862 169.712 158.013 170.393 160.171 170.422 160.512 170.251 164.97 170.166 167.554 169.996 170.336 169.911 171.188L169.712 172.722 176.64 172.551C180.445 172.466 184.477 172.239 185.556 172.097ZM195.096 169.399C196.317 168.235 198.163 166.674 199.185 165.935 201.286 164.402 201.286 164.374 200.747 160.37 200.605 159.234 200.207 156.196 199.895 153.612 199.582 151.028 199.185 148.246 199.015 147.422 198.39 144.327 195.806 140.352 193.279 138.592 192.626 138.166 190.241 136.945 187.969 135.894 183.937 134.02 180.899 132.345 176.044 129.307L173.63 127.802 173.545 128.54C173.403 129.619 174.709 133.509 176.242 136.576L177.605 139.273 179.962 140.636C182.887 142.34 185.272 144.526 186.862 146.996L188.111 148.899 188.083 151.909C188.083 153.641 187.799 156.423 187.43 158.581 187.061 160.626 186.72 162.67 186.635 163.153 186.521 163.806 186.833 164.658 187.827 166.674 190.014 171.018 190.411 171.501 191.717 171.501 192.739 171.501 193.08 171.273 195.096 169.399ZM91.4007 163.068 91.997 160.569 90.9464 159.632C90.3502 159.092 88.8453 157.957 87.5959 157.076 86.3466 156.196 84.5578 154.748 83.6208 153.868 82.6553 153.016 80.2986 151.085 78.3678 149.637 73.2285 145.804 68.4299 141.204 66.4139 138.223 63.9436 134.56 61.4165 129.846 59.7413 125.672 58.1512 121.782 57.4413 120.845 55.2834 119.766 53.7501 119 34.6125 112.725 33.789 112.725 32.8804 112.725 34.4137 118.063 36.4013 121.811 38.5025 125.758 38.6728 125.956 40.3765 126.354 42.2505 126.808 42.6196 126.979 44.4936 128.512 45.3454 129.193 46.1405 129.761 46.2825 129.761 46.4528 129.761 46.5664 129.96 46.5664 130.187 46.5664 130.414 46.0837 130.727 45.4306 130.925 44.806 131.124 44.2949 131.38 44.2949 131.522 44.2949 131.635 45.5158 131.749 46.9923 131.749 50.1157 131.749 50.286 131.862 51.6489 134.503 52.3872 136.008 52.6143 136.235 54.1476 136.86 58.7759 138.762 63.6029 146.485 64.0856 152.789L64.2559 155.089 65.9312 156.48C68.7422 158.808 72.7458 160.484 80.4974 162.585 82.9961 163.266 86.1194 164.175 87.454 164.658 88.7885 165.112 90.0662 165.509 90.3502 165.509 90.6909 165.538 90.9464 164.97 91.4007 163.068ZM186.663 156.821C186.919 155.231 187.117 152.874 187.117 151.625 187.117 149.467 187.061 149.211 186.095 147.706 184.647 145.435 183.057 143.816 180.615 142.226 179.451 141.46 178.486 140.863 178.429 140.92 178.372 140.977 178.968 142.993 179.763 145.406 180.558 147.792 181.666 151.199 182.205 152.902 182.773 154.634 183.653 157.048 184.193 158.297 184.761 159.547 185.329 160.881 185.499 161.279 185.783 161.96 185.783 161.96 186.01 160.853 186.124 160.228 186.436 158.411 186.663 156.821ZM111.589 154.805C112.583 152.221 113.293 148.359 113.491 144.469 113.577 142.453 113.605 140.835 113.491 140.835 113.264 140.835 110.851 145.037 109.999 146.94 109.289 148.558 109.261 148.814 109.403 151.823 109.573 154.947 110.141 156.963 110.737 156.594 110.879 156.509 111.248 155.713 111.589 154.805ZM62.0412 148.388C60.8203 144.98 59.4289 142.624 57.3562 140.437 56.0216 139.046 53.6649 137.371 53.6649 137.854 53.6649 137.91 54.0341 138.592 54.4884 139.33 54.9143 140.097 56.4192 142.624 57.7821 144.952 59.145 147.309 60.8486 150.12 61.5869 151.256L62.893 153.3 62.9782 152.221C63.035 151.54 62.6943 150.177 62.0412 148.388ZM47.5034 149.296C47.9009 148.445 47.9009 148.331 47.5034 147.877 46.7652 147.053 46.5664 147.28 46.5664 148.785 46.5664 150.432 46.8787 150.603 47.5034 149.296ZM165.027 134.446C164.942 132.09 164.544 129.307 164.147 128.256 163.919 127.66 163.777 127.632 160.597 127.774L157.275 127.916 155.941 129.392C155.202 130.216 154.265 131.011 153.839 131.181 152.902 131.493 152.874 131.664 153.612 132.544 154.123 133.14 154.322 133.169 157.218 133.112 160.228 133.027 160.285 133.027 160.228 133.651 160.171 134.219 160.257 134.276 161.052 134.106 161.932 133.935 161.932 133.935 161.761 134.872 161.563 135.781 161.563 135.781 162.5 135.582 164.175 135.213 164.26 135.241 164.203 136.093 164.175 136.718 164.26 136.86 164.629 136.803 165.055 136.718 165.112 136.377 165.027 134.446ZM172.835 115.195C173.006 114.826 173.914 113.577 174.88 112.384L176.612 110.226 178.599 110.112C180.303 110.027 180.672 109.914 181.41 109.204 182.319 108.352 183.483 106.166 184.676 103.213 185.045 102.276 185.641 100.828 186.01 100.004 186.578 98.698 186.606 98.4709 186.266 98.2153 185.754 97.8746 175.589 98.1585 174.88 98.5561 174.34 98.84 172.864 102.162 172.352 104.263 171.955 105.797 171.614 106.166 169.598 107.188 168.775 107.585 168.037 108.04 167.951 108.182 167.866 108.324 167.156 108.522 166.39 108.636L164.998 108.806 165.396 109.63C166.049 110.851 165.935 111.106 164.97 110.936 163.976 110.737 163.976 110.737 164.516 111.986 164.828 112.725 165.226 113.037 166.276 113.435 167.043 113.719 168.69 114.372 169.939 114.883 171.188 115.394 172.296 115.82 172.381 115.82 172.466 115.848 172.693 115.564 172.835 115.195Z" fill="#000000" fill-rule="nonzero" fill-opacity="1" transform="matrix(1 0 0 -1.00302 840.036 342)"/><path d="M243.622 123.316C240.612 122.89 236.58 120.987 233.229 118.46 225.961 112.98 214.745 98.698 205.716 83.4788 204.182 80.8949 202.763 78.5098 202.564 78.1691 202.337 77.7999 201.655 77.4024 200.974 77.2321 197.112 76.2667 194.188 74.9321 191.604 73.0297 189.531 71.4965 186.351 68.0891 184.392 65.2781 182.205 62.1548 177.378 58.35 174.141 57.1858 172.438 56.5895 170.564 56.6747 169.911 57.3846 168.491 58.9462 170.365 64.2559 175.192 72.4051 177.719 76.721 177.776 77.2037 175.589 76.4654 173.971 75.9259 173.006 74.7902 170.308 70.2187 167.128 64.909 165.254 60.9054 165.055 59.0314 164.942 57.7253 164.998 57.3846 165.566 56.6747 167.781 53.8921 173.886 54.9427 179.309 59.0598 180.36 59.8549 181.211 60.4795 181.268 60.4795 181.297 60.4795 181.155 59.7413 180.927 58.8327 179.792 54.5168 182.603 53.1822 186.805 56.0216 188.651 57.2994 190.865 59.4573 194.301 63.3189L195.948 65.1646 195.21 63.6597C192.796 58.7191 192.058 53.8069 193.364 51.4502 194.358 49.6898 195.92 49.0083 198.617 49.1787 203.075 49.4626 207.078 52.6143 211.65 59.4857 213.297 61.9276 216.079 66.9818 216.079 67.5213 216.079 67.72 215.909 67.862 215.71 67.862 215.512 67.862 214.631 66.5559 213.808 64.9658 211.508 60.6783 209.123 57.1858 206.851 54.9143 203.501 51.5354 201.173 50.2576 198.333 50.2576 196.999 50.2576 196.743 50.3712 196.118 51.1095 195.068 52.3304 194.926 54.176 195.636 56.9019 197.765 65.2497 206.823 82.2578 217.982 98.8684 223.064 106.478 225.506 109.63 228.828 112.952 234.507 118.631 238.965 120.476 243.565 119.028 245.127 118.517 245.382 118.517 245.751 118.886 245.978 119.113 246.177 119.454 246.177 119.653 246.177 119.852 246.433 120.363 246.745 120.76 247.398 121.584 247.483 122.464 246.972 122.861 246.518 123.202 244.616 123.458 243.622 123.316ZM200.264 73.91C195.125 64.5967 186.067 55.0562 185.045 57.7821 184.534 59.0882 187.259 64.6819 190.496 69.0262 194.216 73.9383 196.715 75.642 200.548 75.784L201.343 75.8124 200.264 73.91Z" fill="#000000" fill-rule="nonzero" fill-opacity="1" transform="matrix(1 0 0 -1.00302 840.036 342)"/><path d="M97.4771 98.982C94.2402 97.9314 91.6279 96.0858 89.8675 93.6723 87.1132 89.8107 85.9207 85.8923 86.5453 82.627 86.9713 80.2418 87.6527 78.9357 90.3218 75.3297 91.5711 73.626 92.9624 71.4397 93.4451 70.4459 94.2686 68.7706 94.3253 68.4583 94.2118 66.3287 94.0414 63.4609 93.3883 62.098 91.1168 59.8549 88.0502 56.8735 84.0467 55.4822 79.1629 55.7093 75.9543 55.8513 74.0519 56.6179 72.4619 58.3216 71.0705 59.8265 70.5878 61.2178 70.7582 63.2338 70.8718 64.5967 70.6446 65.3349 70.2187 64.9374 70.1619 64.8522 69.6508 63.0918 69.1397 61.019 68.4867 58.4351 68.2595 57.129 68.4583 56.9019 68.9694 56.2772 71.2693 55.3402 73.484 54.8859 76.2099 54.3464 82.7689 54.5168 85.3244 55.2266 89.5551 56.3908 93.9846 59.3438 96.4833 62.6375 98.4141 65.1929 99.0956 67.0102 99.0956 69.6508 99.0956 72.2347 98.4993 73.5692 95.6031 77.4876 92.9056 81.0653 91.5711 83.3084 90.8613 85.4948 89.328 90.0094 91.0032 94.5525 94.8932 96.5685 96.3981 97.3635 100.43 97.6475 102.361 97.108 104.916 96.3981 106.648 94.155 106.421 91.7983 106.251 89.8675 106.961 90.5205 107.869 93.1044 108.352 94.5241 108.75 96.0006 108.75 96.3981 108.75 97.3067 107.699 98.3857 106.109 99.0956 104.32 99.919 100.203 99.8622 97.4771 98.982Z" fill="#000000" fill-rule="nonzero" fill-opacity="1" transform="matrix(1 0 0 -1.00302 840.036 342)"/><path d="M119.766 91.8267C118.886 91.3724 117.836 89.5551 117.836 88.5045 117.836 86.517 120.732 86.8293 122.066 88.9588 122.719 90.0378 122.833 91.4291 122.322 91.9402 121.868 92.3945 120.703 92.3378 119.766 91.8267Z" fill="#000000" fill-rule="nonzero" fill-opacity="1" transform="matrix(1 0 0 -1.00302 840.036 342)"/><path d="M181.382 91.8267C180.502 91.3724 179.451 89.5551 179.451 88.5045 179.451 86.517 182.347 86.8293 183.682 88.9588 184.335 90.0378 184.448 91.4291 183.937 91.9402 183.483 92.3945 182.319 92.3378 181.382 91.8267Z" fill="#000000" fill-rule="nonzero" fill-opacity="1" transform="matrix(1 0 0 -1.00302 840.036 342)"/><path d="M144.327 84.2454C144.015 83.9047 143.021 82.3146 142.084 80.7245 140.466 77.8851 140.381 77.7999 139.415 77.7999 137.939 77.7999 135.27 77.0333 133.623 76.1531 131.692 75.1309 127.433 70.9854 125.502 68.2595 122.436 63.9436 118.176 60.082 114.059 57.8957 111.759 56.6747 109.147 56.4192 108.324 57.3562 106.876 58.9462 108.721 64.1992 113.577 72.4051 116.104 76.721 116.16 77.2037 113.974 76.4654 112.356 75.9259 111.39 74.7902 108.693 70.2187 105.513 64.909 103.639 60.9054 103.44 59.0314 103.298 57.6401 103.355 57.3846 104.036 56.5895 105.03 55.397 106.421 54.9711 108.608 55.1698 112.072 55.5105 115.649 57.2426 119.511 60.4795 120.675 61.4733 121.555 62.098 121.442 61.8708 120.079 58.7191 119.823 57.8957 119.823 56.5895 119.823 55.3402 119.937 55.0278 120.562 54.5451 120.987 54.2044 121.584 53.9489 121.924 53.9489 123.798 53.9773 126.78 56.3908 130.329 60.7635 132.743 63.7449 133.85 65.0226 133.651 64.5967 133.594 64.4547 131.238 60.1104 128.427 54.9427 125.616 49.8033 121.413 42.0517 119.113 37.7642 112.356 25.214 110.311 21.9771 105.825 16.8093 98.6696 8.54664 90.7193 4.54306 81.4912 4.54306 71.0137 4.54306 63.83 8.80218 62.4671 15.8155 62.1832 17.2352 62.1832 18.0587 62.4671 19.8759 62.6659 21.1252 62.7511 22.2326 62.6659 22.3178 61.9844 22.9993 61.3313 20.3018 61.3313 16.8945 61.3313 9.31328 64.6819 4.42949 71.1273 2.64066 71.9224 2.4135 74.1371 2.15795 76.0963 2.07277 88.4762 1.50489 100.004 7.29729 108.806 18.4562 111.731 22.2042 113.974 25.5831 121.016 37.0544 130.102 51.8477 134.134 58.7759 141.971 73.1149 146.201 80.8097 146.656 82.0591 145.946 83.7343 145.492 84.8417 144.98 84.9837 144.327 84.2454ZM139.415 75.9543C139.415 75.1877 135.185 68.4867 132.203 64.5967 128.342 59.5141 124.877 56.1352 124.054 56.6463 123.316 57.129 124.565 61.7005 126.439 65.4485 128.682 69.9916 133.083 75.1593 135.156 75.7556 136.207 76.0679 139.415 76.2099 139.415 75.9543Z" fill="#000000" fill-rule="nonzero" fill-opacity="1" transform="matrix(1 0 0 -1.00302 840.036 342)"/><path d="M153.243 74.4778C152.391 72.9445 149.864 68.5719 147.65 64.7386 145.435 60.9054 143.476 57.413 143.305 56.987 143.078 56.3056 143.135 56.0784 143.703 55.4822 144.867 54.2328 145.179 54.5168 147.82 59.003 152.477 66.8682 155.713 70.815 159.149 72.831 161.705 74.3359 164.033 74.3359 165.226 72.8026 165.509 72.4335 165.879 72.1211 165.992 72.1211 166.333 72.1495 168.377 75.4432 168.377 75.9543 168.377 76.721 167.043 77.3172 165.651 77.1469 163.323 76.8913 158.865 74.2223 155.685 71.1841 155.004 70.5311 154.464 70.1051 154.464 70.1903 154.464 70.2755 155.032 71.3545 155.742 72.5754 156.452 73.8248 157.02 75.0741 157.02 75.4148 157.02 76.0963 155.912 77.2321 155.259 77.2321 155.004 77.2321 154.18 76.1247 153.243 74.4778Z" fill="#000000" fill-rule="nonzero" fill-opacity="1" transform="matrix(1 0 0 -1.00302 840.036 342)"/></g></g></g></g></svg>